PathFileType	4	(X/Y/Z)	T1_P2_Vision_Movement_0_0-735.trc
DataRate	CameraRate	NumFrames	NumMarkers	Units	OrigDataRate	OrigDataStartFrame	OrigNumFrames
60	60	7	27	m	60	91	735
Frame#	Time	RHip			RKnee			RAnkle			RBigToe			RSmallToe			RHeel			LHip			LKnee			LAnkle			LBigToe			LSmallToe			LHeel			Neck			Head			Nose			RShoulder			RElbow			RWrist			RThumb			RIndex			RPinky			LShoulder			LElbow			LWrist			LThumb			LIndex			LPinky		
		X1	Y1	Z1	X2	Y2	Z2	X3	Y3	Z3	X4	Y4	Z4	X5	Y5	Z5	X6	Y6	Z6	X7	Y7	Z7	X8	Y8	Z8	X9	Y9	Z9	X10	Y10	Z10	X11	Y11	Z11	X12	Y12	Z12	X13	Y13	Z13	X14	Y14	Z14	X15	Y15	Z15	X16	Y16	Z16	X17	Y17	Z17	X18	Y18	Z18	X19	Y19	Z19	X20	Y20	Z20	X21	Y21	Z21	X22	Y22	Z22	X23	Y23	Z23	X24	Y24	Z24	X25	Y25	Z25	X26	Y26	Z26	X27	Y27	Z27
92	1.5333333333333334	456.9395011246185	3663.10426015227	634.5865677093058	854.2950085117171	3731.9808984186625	650.5891464358332	1228.4834244190795	3728.7974001109665	690.2910378551109	1285.8876994328434	3626.6013415509115	643.54215282498	1289.8405310143312	3686.095324480492	604.4373457108329	1290.7032492651506	3793.019765088642	745.0339837995241	466.9157722002257	3603.339943102711	840.8765625599856	869.0600675652682	3629.431764101905	845.6324450770503	1235.1605510577294	3676.542867470241	852.0951089786155	1309.232011764802	3548.010296257973	805.7824028807171	1282.397690321203	3529.409235671394	835.8122017062454	1270.8889672115247	3710.947685544763	859.1312656411741	-110.06339349814643	3626.9473849494316	753.2430975441439	-376.72515307255657	3554.9211687791803	706.8389756359949	-219.01577915706685	3439.932720798617	664.9592036886604	-30.964687199930463	3702.0587547137493	611.9068366304725	208.2255088164012	3775.1905034274073	531.9981051284545	445.8110360199942	3677.5300056793403	489.3396589852391	565.117423023802	3623.9664159464146	506.0835751907763	575.0003829478912	3633.03349592551	484.2863041807154	582.9203026608991	3676.857715918495	463.0006336088196	-21.27180902157149	3568.4739661383724	895.7014217184517	237.14811100012884	3540.2136698806985	945.1380988827934	497.00128214417794	3511.2228986782507	934.8209125152008	591.1213047165104	3463.457645754387	849.7292085055141	616.0951443150923	3472.6686197878626	883.8110431913943	607.8596934703978	3416.6839100721554	924.6077891861592
93	1.55	456.5796768462276	3662.301505298942	634.2331329023884	855.9322100718116	3738.6818906702088	652.370846600212	1230.140142391189	3731.128485476469	692.1294134955849	1286.0379140096763	3626.4443652560362	643.5612125234389	1290.8766820977833	3686.8761594164516	604.6741710293993	1292.5230184282311	3797.2342048248943	748.3730646900788	466.4153396442283	3602.9711577706385	841.197829146399	867.5295681740914	3625.5925945849494	843.2278162012615	1235.366634233653	3676.297883755	851.3902821486492	1308.7585509327496	3547.579987752654	804.2947486710949	1281.0145385817402	3529.718804787768	836.2702275751617	1270.668526789003	3710.693520917186	858.9083249793746	-110.110039215306	3626.152358344966	754.7454634943906	-376.6593140424355	3555.2780331893755	706.9221820978556	-218.9301764052453	3440.1531653567636	665.4149170226071	-30.68868786437276	3706.7872781317874	615.6090991969077	208.09959341597198	3769.5558550610917	529.864919701584	444.83841702658685	3679.2959222634686	489.5837708744735	564.9006833273625	3623.977772836751	505.7369906283466	574.7760495432079	3632.930356998351	484.3414221125063	581.988428356983	3671.72281899108	460.7638308562312	-23.261468023675338	3567.624252302194	895.3705846167666	236.08683695716363	3540.3347769690818	945.2099825607462	496.9911919974777	3511.2225352089745	934.8306765671831	591.2351351875611	3463.528494665622	849.7991765129508	616.3170807195175	3472.5568479376307	883.6297333898669	609.6373001455848	3417.7614631275746	925.0777071269838
94	1.5666666666666669	455.9946445580566	3660.9794067439943	633.6949836783248	858.2150775673593	3744.6396385809353	653.6317125442508	1230.4806757252238	3733.681403075843	694.156929543937	1286.3782573025649	3627.265613767513	643.8435745771963	1291.4402179668575	3687.183571874266	604.6755013328512	1294.4184285531887	3801.5051745634332	751.7860791240666	466.58166116298014	3602.5194493551076	841.7281761461979	866.1568524066522	3621.383549861094	840.8645396471077	1235.956132654047	3675.059541362473	851.2139992032912	1308.4252287025522	3547.0776100418207	803.5102804268929	1281.0949429852558	3530.95917391447	837.9741232387139	1270.462580130459	3709.35213415487	858.0634518476504	-110.18156673067443	3625.535744664478	755.9034225325914	-376.65457562554803	3555.05655457806	706.7497797322503	-218.95892706193237	3441.262484623497	667.1536976540843	-30.657745314739273	3708.532602621048	617.0976994547235	208.83214138046503	3766.680263116703	528.6634902577474	445.54749896219084	3684.601345519691	491.5901068744934	563.9674664193248	3624.0973967688415	505.8053820915351	574.1057825052985	3632.5955263030687	484.1817176196507	579.4431482638337	3663.4101478197244	456.75624459558367	-24.14145325557547	3567.165963993889	895.2049804989504	235.91447213773148	3539.8970931785143	944.8803962224742	496.9940544306945	3511.184114322173	934.8063945310678	591.2610214994868	3463.624308158905	849.8954338631428	616.836617440095	3472.8904070364115	883.8583644299209	610.9688770469851	3418.46801406558	925.5078944347263
95	1.5833333333333333	455.2602616927711	3660.0154649807887	633.3840922401571	858.1533719416668	3745.423531791111	653.4076296358535	1229.1575446611787	3734.370528396642	694.6849333698893	1287.2478448287727	3630.0957633762523	644.6344846951862	1290.9588010164516	3686.681887804988	604.4142632139025	1294.5320928899605	3801.8162902204317	752.0376852843103	467.65354780782025	3602.015454551047	841.963426689828	864.6256757181195	3618.233183400466	839.2729022169071	1236.5721372447563	3673.664319267429	851.4540238610231	1309.1585699601355	3548.532694581405	804.8304460532828	1283.5268234137127	3533.2825117520465	840.528337227034	1270.6877898569003	3708.330928370296	857.2012927998621	-110.25570193940426	3625.2697753186203	756.3841052930884	-376.9383184612069	3552.909300034065	706.0046333943435	-219.4268017848788	3442.95095184601	669.6901114457143	-31.085103866093423	3708.12436157844	617.0394223602739	209.6051257714737	3765.6609078320494	528.7241657091001	447.04089760742727	3692.829021897329	494.3191319556845	562.2990225103074	3625.005149028396	505.9180726395236	573.037801891612	3631.6664632000447	483.39884617601564	576.2239089380412	3654.3808589346218	452.9323022901645	-23.863221220387626	3567.414321042081	895.3601535683279	236.41175403658323	3539.1785490713305	944.3654793971822	497.00473638372125	3511.151213945354	934.7699181124684	591.2527882152804	3463.6413138387097	849.9462954953897	617.0880610308342	3473.004184209986	883.9445989809651	611.4491335478984	3418.3990901189018	926.0131915708256
96	1.6	454.8612416203007	3659.655064009032	633.502895065337	856.0186873374104	3739.9409740617275	651.7085135632351	1226.7819330672332	3732.1205746220076	692.8426326204922	1288.3467852379117	3634.506124787175	645.7954504495367	1289.9738498160507	3685.870368840707	604.0930396649055	1293.4526600784216	3799.4794508410932	750.1860451708816	469.4822356833293	3601.5652327476596	841.9094878518174	862.970824841188	3615.311080793789	838.3127458293806	1236.9272376175354	3672.88302827367	851.6898812565566	1310.245401973468	3550.533298248819	806.9475063162182	1287.2698522126607	3536.318628891162	843.3346932828691	1271.1547393330536	3708.2498064887604	856.7726334223588	-110.32236085381722	3625.239003231692	756.4248093700768	-377.72105028459	3548.378000973632	704.9597830553652	-220.56109592451418	3443.645599848477	670.7254629878374	-31.988111912371963	3706.8887874656984	616.4517540574753	209.60871962745617	3765.6265266192086	529.9218346965939	447.80046307874295	3700.2101693064615	496.00962575704114	560.8019003990398	3626.713165727087	505.67812122151366	572.1739297672822	3629.7439869135533	481.780289053689	574.6654957728133	3649.4820886334714	452.27721420332267	-23.472613464635295	3567.699309856288	895.5356731470879	236.7908535927857	3538.651734291066	944.0942740312624	496.98998727965056	3511.1206550065353	934.7286615984615	591.15678452559	3463.502655338059	849.9040823633532	616.9232945817257	3473.0963432345325	884.1324748239579	611.3556830362534	3417.5754707215533	926.8546095523598
97	1.6166666666666667	454.67550310873673	3657.8440512677416	633.3450901418003	854.6861804933192	3732.247181331157	649.6986627091237	1224.7256195884465	3728.753217036785	690.1327961639457	1288.9705396480592	3636.745241918894	646.2944724803964	1289.3131484274581	3685.39161556879	603.9232957344974	1293.5408776967688	3799.603839562067	750.3458074380571	470.93546678582055	3601.268073089205	842.4319415986129	861.8428914554913	3611.409403843883	837.4977099071367	1237.0540636169037	3672.6636184979197	851.7433145433574	1310.2053299874058	3549.8330246908354	807.6020456054455	1289.5584160733524	3538.6157715707914	845.2935063546503	1271.4133293848213	3709.640139166146	857.2225654990981	-110.38811569959388	3625.2866778080206	756.3554961557587	-378.87213011339463	3543.9574716460716	705.1179439274755	-222.01698720758753	3442.668615651648	669.2699380560337	-32.9328283652763	3705.807107965971	615.945483815261	208.62218177171476	3766.457274439024	531.4885861228283	447.4082787750539	3702.905644204298	495.310564323521	560.3298387052907	3627.9029051017565	505.0080517808773	572.0735774058712	3627.1995018076705	480.04461260464757	575.9915185654113	3650.648475156635	454.9872080527541	-23.76677786352749	3567.4321570346506	895.4663792643271	236.81570451841114	3538.282990375925	944.2838657698667	496.9284126014991	3511.0699296450584	934.6882893962247	590.9535360163698	3463.302862137096	849.8302990421136	617.1160453095183	3474.409583407244	885.5532506607416	611.1153450984666	3416.4529584019183	927.9295406448368
98	1.6333333333333333	454.03513651505136	3652.511276449576	632.0983694671561	855.3292702114368	3727.1797347902884	648.5390907865508	1223.8435985932874	3726.642495647424	688.4864291098108	1289.1331495229779	3634.7511873048493	645.6387636824284	1289.1612718541257	3685.4051055276686	603.9462067122155	1295.2859210416946	3803.275317948942	753.3673068945952	471.024499650247	3601.1970695886644	843.8378703279075	861.1793563614971	3606.5827460722153	836.4312153195451	1237.0862074891477	3672.6532031670195	851.6778628359375	1309.2656806871441	3547.158876772909	806.8624710743999	1288.8040436234205	3539.003142867883	845.7255144310091	1271.0859113012693	3712.553755341013	858.4195532595091	-110.4554935314424	3625.335387439952	756.3197748046322	-379.92417133902416	3543.3228757402653	708.1088529048915	-222.98788668507922	3441.6761038532873	668.1891221923823	-33.38749238493136	3705.406309873868	615.7604648162934	207.19762923429556	3767.739313774172	532.7667418398842	446.85093920029243	3699.6545713162104	491.7584247296794	560.4959351459004	3626.9525968768294	503.8577303373411	572.7263207887202	3625.849535179906	479.5420089505512	578.9808046176968	3653.69132648767	457.86823963987877	-24.342938362717728	3566.908827002865	895.2581505540304	236.8007082362593	3537.866546638016	944.8789584090035	496.8533977491838	3510.9874752922733	934.6547950065915	590.8380330760174	3463.230283990722	849.8524123501334	618.3252795769432	3477.7358475100827	888.84554682638	610.9763926828009	3415.653432125593	928.7976261257954
